<svg width="108" height="42" viewBox="0 0 76 24" fill="none" xmlns="http://www.w3.org/2000/svg">
<path d="M19.7235 11.904L2.89957 20.332H21.3384V23.2316H2.87204C1.28462 23.2316 0 21.9194 0 20.332C0 19.2309 0.669836 18.2537 1.61954 17.7673L18.4113 9.33932H0V6.46729H18.471C20.0263 6.46729 21.343 7.74731 21.343 9.33932C21.343 10.5001 20.6411 11.4452 19.7235 11.904Z" fill="#7033F5"/>
<path d="M24.21 6.48535H27.082V23.245H24.21V6.48535Z" fill="#7033F5"/>
<path d="M51.2932 12.5186L51.2611 17.1569C51.229 20.4832 48.5726 23.2314 45.2463 23.2314H35.9971C32.6708 23.2314 29.9502 20.4832 29.9502 17.1569V12.5186C29.9502 9.19232 32.6662 6.47168 35.9971 6.47168H45.2463C48.5726 6.47168 51.2611 9.18773 51.2932 12.5186ZM48.3936 12.5186C48.3936 10.7797 46.9897 9.34372 45.2509 9.34372H36.0017C34.2628 9.34372 32.8589 10.7797 32.8589 12.5186V17.1569C32.8589 18.8958 34.2628 20.3318 36.0017 20.3318H45.2509C46.9897 20.3318 48.3936 18.8958 48.3936 17.1569V12.5186Z" fill="#7033F5"/>
<path d="M75.5033 12.5322V23.2496H72.6312V12.5322C72.6312 10.7934 71.1952 9.35739 69.4885 9.35739H57.0644V23.2496H54.1924V6.48535H69.4885C72.7872 6.48535 75.5033 9.2014 75.5033 12.5322Z" fill="#7033F5"/>
<path d="M46.8428 0.750488H34.4004V3.61794H46.8428V0.750488Z" fill="#7033F5"/>
</svg>
